<?xml version="1.0" encoding="utf-8"?>
<!-- Generator: Adobe Illustrator 21.1.0, SVG Export Plug-In . SVG Version: 6.00 Build 0)  -->
<svg version="1.1" id="Icons" xmlns="http://www.w3.org/2000/svg" xmlns:xlink="http://www.w3.org/1999/xlink" x="0px" y="0px"
	 viewBox="0 0 48 48" style="enable-background:new 0 0 48 48;" xml:space="preserve">
<style type="text/css">
	.st0{fill:#FFFFFF;}
	.st1{fill:#F0F0F0;}
	.st2{fill:none;stroke:#45413C;stroke-linecap:round;stroke-linejoin:round;stroke-miterlimit:10;}
	.st3{fill:#FF6242;}
	.st4{fill:#FF866E;}
	.st5{fill:#FFE500;stroke:#45413C;stroke-linecap:round;stroke-linejoin:round;stroke-miterlimit:10;}
	.st6{opacity:0.15;fill:#45413C;}
	.st7{fill:#45413C;stroke:#45413C;stroke-linecap:round;stroke-linejoin:round;stroke-miterlimit:10;}
	.st8{fill:#FFAA54;}
	.st9{fill:#E0E0E0;}
	.st10{fill:#FFCEBF;stroke:#45413C;stroke-linecap:round;stroke-linejoin:round;stroke-miterlimit:10;}
	.st11{fill:#FFB59E;}
	.st12{fill:#724F3D;}
	.st13{fill:#A86C4D;}
	.st14{fill:#FFE500;}
	.st15{fill:#EBCB00;}
	.st16{fill:#FFA694;}
	.st17{fill:#FFFFFF;stroke:#45413C;stroke-linecap:round;stroke-linejoin:round;stroke-miterlimit:10;}
	.st18{fill:#DE926A;}
	.st19{fill:#FFCEBF;}
	.st20{fill:#656769;}
	.st21{fill:#525252;}
	.st22{fill:#656769;stroke:#45413C;stroke-linecap:round;stroke-linejoin:round;stroke-miterlimit:10;}
	.st23{fill:#45413C;}
	.st24{fill:#009FD9;stroke:#45413C;stroke-linecap:round;stroke-linejoin:round;stroke-miterlimit:10;}
	.st25{fill:#A86C4D;stroke:#45413C;stroke-linecap:round;stroke-linejoin:round;stroke-miterlimit:10;}
	.st26{fill:#614B44;stroke:#45413C;stroke-linecap:round;stroke-linejoin:round;stroke-miterlimit:10;}
	.st27{fill:#FF6242;stroke:#45413C;stroke-linecap:round;stroke-linejoin:round;stroke-miterlimit:10;}
	.st28{fill:#9CEB60;stroke:#45413C;stroke-linecap:round;stroke-linejoin:round;stroke-miterlimit:10;}
	.st29{fill:#9F5AE5;}
	.st30{fill:#BF8DF2;}
	.st31{fill:#FFDCD1;}
	.st32{fill:#FFF48C;}
	.st33{fill:#E5FEFF;}
	.st34{fill:#00DFEB;}
	.st35{fill:#A6FBFF;}
	.st36{fill:#FF87AF;}
	.st37{fill:#FF6196;}
	.st38{fill:#EBCB00;stroke:#45413C;stroke-linecap:round;stroke-linejoin:round;stroke-miterlimit:10;}
	.st39{fill:#00B8F0;}
	.st40{fill:#009FD9;}
	.st41{fill:#4ACFFF;}
	.st42{fill:#FFB59E;stroke:#45413C;stroke-linecap:round;stroke-linejoin:round;stroke-miterlimit:10;}
	.st43{fill:#FFB0CA;}
	.st44{fill:#FF87AF;stroke:#45413C;stroke-linecap:round;stroke-linejoin:round;stroke-miterlimit:10;}
	.st45{fill:#00B8F0;stroke:#45413C;stroke-linecap:round;stroke-linejoin:round;stroke-miterlimit:10;}
	.st46{fill:#FF866E;stroke:#45413C;stroke-linecap:round;stroke-linejoin:round;stroke-miterlimit:10;}
	.st47{fill:#DAEDF7;stroke:#45413C;stroke-linecap:round;stroke-linejoin:round;stroke-miterlimit:10;}
	.st48{fill:#DABFF5;}
	.st49{fill:#C0DCEB;}
	.st50{fill:#ADC4D9;}
	.st51{fill:#E04122;stroke:#45413C;stroke-linecap:round;stroke-linejoin:round;stroke-miterlimit:10;}
	.st52{fill:#BF8256;}
	.st53{fill:#DEA47A;}
	.st54{fill:#87898C;}
	.st55{fill:#BDBEC0;stroke:#45413C;stroke-linecap:round;stroke-linejoin:round;stroke-miterlimit:10;}
	.st56{fill:#8CA4B8;}
	.st57{fill:#FFC44D;}
	.st58{fill:#FFDB94;}
	.st59{fill:#FFC44D;stroke:#45413C;stroke-linecap:round;stroke-linejoin:round;stroke-miterlimit:10;}
	.st60{fill:#E04122;}
	.st61{fill:#724F3D;stroke:#45413C;stroke-linecap:round;stroke-linejoin:round;stroke-miterlimit:10;}
	.st62{fill:#915E3A;}
	.st63{fill:#FF8A14;}
	.st64{fill:none;stroke:#45413C;stroke-linecap:round;stroke-miterlimit:10;}
	.st65{fill:#00F5BC;}
	.st66{fill:#00DBA8;}
	.st67{fill:#627B8C;}
</style>
<g>
	<ellipse id="XMLID_5674_" class="st6" cx="24" cy="45.5" rx="18" ry="1.5"/>
	<path id="XMLID_5673_" class="st39" d="M36,29.8l-1.4,8c-1.9-3.9-6-6.6-10.6-6.6c-4.7,0-8.7,2.7-10.6,6.6l-1.4-8l-4.9,0.5l1.2,11.1
		c0.2,2,1.9,3.5,3.9,3.5h0h23.8h0c2,0,3.7-1.5,3.9-3.5l1.2-11.1L36,29.8z"/>
	<g>
		<polygon class="st40" points="7.1,30.3 7.3,32.8 12.4,32.2 12,29.8 		"/>
		<polygon class="st40" points="36,29.8 35.6,32.2 40.7,32.8 40.9,30.3 		"/>
		<path class="st40" d="M24,31.2c-4.7,0-8.7,2.7-10.6,6.6l0.3,1.8c2.1-3.6,5.9-6,10.3-6s8.2,2.4,10.3,6l0.3-1.8
			C32.7,33.9,28.7,31.2,24,31.2z"/>
	</g>
	<path id="XMLID_5672_" class="st2" d="M36,29.8l-1.4,8c-1.9-3.9-6-6.6-10.6-6.6c-4.7,0-8.7,2.7-10.6,6.6l-1.4-8l-4.9,0.5l1.2,11.1
		c0.2,2,1.9,3.5,3.9,3.5h0h23.8h0c2,0,3.7-1.5,3.9-3.5l1.2-11.1L36,29.8z"/>
	<path id="XMLID_5671_" class="st14" d="M24,35.1L24,35.1c-1.4,0-2.5-1.1-2.5-2.5v-2.8c0-1.4,1.1-2.5,2.5-2.5h0
		c1.4,0,2.5,1.1,2.5,2.5v2.8C26.5,34,25.4,35.1,24,35.1z"/>
	<path id="XMLID_5670_" class="st15" d="M24,27.2c-1.4,0-2.5,1.1-2.5,2.5v0.6c0,1.4,1.1,2.5,2.5,2.5c1.4,0,2.5-1.1,2.5-2.5v-0.6
		C26.5,28.3,25.4,27.2,24,27.2z"/>
	<path id="XMLID_5669_" class="st2" d="M24,35.1L24,35.1c-1.4,0-2.5-1.1-2.5-2.5v-2.8c0-1.4,1.1-2.5,2.5-2.5h0
		c1.4,0,2.5,1.1,2.5,2.5v2.8C26.5,34,25.4,35.1,24,35.1z"/>
	<path id="XMLID_5668_" class="st5" d="M9.5,29.1l-3.2-0.6c-0.5-0.1-0.8-0.6-0.7-1l0,0c0.1-0.5,0.6-0.8,1-0.7l4.3,0.8L9.5,29.1z"/>
	<path id="XMLID_5667_" class="st5" d="M3.3,27.9l4.1,0.8c1-0.8,2-1.4,3.6-1.1l0,0c1,0.2,1.7,1.2,1.5,2.2l0,0
		c-0.2,1-1.2,1.7-2.2,1.5l-7.3-1.4c-0.5-0.1-0.9-0.6-0.8-1.2C2.3,28.2,2.8,27.8,3.3,27.9z"/>
	<path id="XMLID_5666_" class="st5" d="M38.5,29.1l3.2-0.6c0.5-0.1,0.8-0.6,0.7-1l0,0c-0.1-0.5-0.6-0.8-1-0.7L37,27.6L38.5,29.1z"/>
	<path id="XMLID_5665_" class="st5" d="M44.7,27.9l-4.1,0.8c-1-0.8-2-1.4-3.6-1.1l0,0c-1,0.2-1.7,1.2-1.5,2.2v0
		c0.2,1,1.2,1.7,2.2,1.5l7.3-1.4c0.5-0.1,0.9-0.6,0.8-1.2C45.7,28.2,45.2,27.8,44.7,27.9z"/>
	<line id="XMLID_5664_" class="st2" x1="13.4" y1="37.8" x2="14.1" y2="41.9"/>
	<line id="XMLID_5663_" class="st2" x1="34.6" y1="37.8" x2="33.9" y2="41.9"/>
	<g>
		<path id="XMLID_5662_" class="st12" d="M24,6.9c-0.8,0-1.7,0.1-2.4,0.3c-1.9,0.4-4.3,1.1-6.5,0.7c-0.2,2.1,0.8,3.2,0.8,3.2
			c-1.1,1.6-1.8,3.5-1.8,5.6v5.1h19.6v-5.1C33.8,11.3,29.4,6.9,24,6.9z"/>
		<g id="XMLID_5660_">
			<path id="XMLID_5661_" class="st13" d="M24,6.9c-0.8,0-1.7,0.1-2.4,0.3c-1.9,0.4-4.3,1.1-6.5,0.7c-0.2,1.6,0.4,2.6,0.7,3
				c2,0.2,4.1-0.4,5.8-0.8c0.8-0.2,1.6-0.3,2.4-0.3c5.4,0,9.8,4.4,9.8,9.8v-2.9C33.8,11.3,29.4,6.9,24,6.9z"/>
		</g>
		<path id="XMLID_5659_" class="st2" d="M24,6.9c-0.8,0-1.7,0.1-2.4,0.3c-1.9,0.4-4.3,1.1-6.5,0.7c-0.2,2.1,0.8,3.2,0.8,3.2
			c-1.1,1.6-1.8,3.5-1.8,5.6v5.1h19.6v-5.1C33.8,11.3,29.4,6.9,24,6.9z"/>
		<path class="st5" d="M34.9,21.1c-0.1-0.7-0.7-1.3-1.4-1.5l-0.6-0.2c-0.9-0.2-1.5-1.1-1.5-2v-2.1c0-0.9-0.6-1.6-1.4-1.8
			c-1.6,0.7-3.7,1.1-6,1.1s-4.4-0.4-6-1.1c-0.8,0.2-1.4,0.9-1.4,1.8v2.1c0,0.9-0.6,1.7-1.5,2l-0.6,0.2c-0.7,0.2-1.3,0.8-1.4,1.5
			c-0.1,1.1,0.8,2,1.8,2c0,0,0.1,0,0.1,0c0.7,4.4,4.4,7.7,9,7.7s8.3-3.4,9-7.7c0,0,0.1,0,0.1,0C34.1,23.1,35,22.2,34.9,21.1z"/>
		<circle id="XMLID_5658_" class="st7" cx="19.3" cy="20.9" r="0.8"/>
		<circle id="XMLID_5657_" class="st7" cx="28.7" cy="20.9" r="0.8"/>
		<ellipse id="XMLID_5656_" class="st8" cx="18.1" cy="24.2" rx="1" ry="0.6"/>
		<ellipse id="XMLID_5655_" class="st8" cx="29.9" cy="24.2" rx="1" ry="0.6"/>
		<path id="XMLID_5654_" class="st3" d="M26.5,27.8c0,0.9-1.1,1.1-2.5,1.1s-2.5-0.2-2.5-1.1c0-0.9,1-2.1,2.5-2.1S26.5,27,26.5,27.8z
			"/>
		<path id="XMLID_5653_" class="st16" d="M26.2,28.5c-0.4-0.6-1.2-1.1-2.2-1.1c-1,0-1.8,0.5-2.2,1.1c0.4,0.3,1.3,0.4,2.2,0.4
			S25.8,28.8,26.2,28.5z"/>
		<path id="XMLID_5652_" class="st2" d="M26.5,27.8c0,0.9-1.1,1.1-2.5,1.1s-2.5-0.2-2.5-1.1c0-0.9,1-2.1,2.5-2.1S26.5,27,26.5,27.8z
			"/>
	</g>
</g>
</svg>
